HIERARCHY
ROOT hip
{
  OFFSET 0 0 0
  CHANNELS 6 Xposition Yposition Zposition Zrotation Yrotation Xrotation
  JOINT abdomen
  {
    OFFSET 0 20.6881 -0.73152
    CHANNELS 3 Zrotation Xrotation Yrotation
    JOINT chest
    {
      OFFSET 0 11.7043 -0.48768
      CHANNELS 3 Zrotation Xrotation Yrotation
      JOINT neck
      {
        OFFSET 0 22.1894 -2.19456
        CHANNELS 3 Zrotation Xrotation Yrotation
        JOINT head
        {
          OFFSET -0.24384 7.07133 1.2192
          CHANNELS 3 Zrotation Xrotation Yrotation
          JOINT leftEye
          {
            OFFSET 4.14528 8.04674 8.04672
            CHANNELS 3 Zrotation Xrotation Yrotation
            End Site
            {
              OFFSET 1 0 0
            }
          }
          JOINT rightEye
          {
            OFFSET -3.6576 8.04674 8.04672
            CHANNELS 3 Zrotation Xrotation Yrotation
            End Site
            {
              OFFSET 1 0 0
            }
          }
        }
      }
      JOINT rCollar
      {
        OFFSET -2.68224 19.2634 -4.8768
        CHANNELS 3 Zrotation Xrotation Yrotation
        JOINT rShldr
        {
          OFFSET -8.77824 -1.95073 1.46304
          CHANNELS 3 Zrotation Xrotation Yrotation
          JOINT rForeArm
          {
            OFFSET -28.1742 -1.7115 0.48768
            CHANNELS 3 Zrotation Xrotation Yrotation
            JOINT rHand
            {
              OFFSET -22.5879 0.773209 7.07136
              CHANNELS 3 Zrotation Xrotation Yrotation
              JOINT rThumb1
              {
                OFFSET -1.2192 -0.487915 3.41376
                CHANNELS 3 Zrotation Xrotation Yrotation
                JOINT rThumb2
                {
                  OFFSET -3.37035 -0.52449 3.41376
                  CHANNELS 3 Zrotation Xrotation Yrotation
                  End Site
                  {
                    OFFSET -1.78271 -1.18214 1.43049
                  }
                }
              }
              JOINT rIndex1
              {
                OFFSET -7.75947 0.938293 5.60832
                CHANNELS 3 Zrotation Xrotation Yrotation
                JOINT rIndex2
                {
                  OFFSET -2.54057 -0.884171 1.56538
                  CHANNELS 3 Zrotation Xrotation Yrotation
                  End Site
                  {
                    OFFSET -1.62519 -0.234802 1.16502
                  }
                }
              }
              JOINT rMid1
              {
                OFFSET -8.24714 1.18213 3.41376
                CHANNELS 3 Zrotation Xrotation Yrotation
                JOINT rMid2
                {
                  OFFSET -3.10165 -0.590103 1.0647
                  CHANNELS 3 Zrotation Xrotation Yrotation
                  End Site
                  {
                    OFFSET -2.48547 -0.328903 0.83742
                  }
                }
              }
              JOINT rRing1
              {
                OFFSET -8.82822 0.546677 1.51678
                CHANNELS 3 Zrotation Xrotation Yrotation
                JOINT rRing2
                {
                  OFFSET -2.60934 -0.819778 -0.0198488
                  CHANNELS 3 Zrotation Xrotation Yrotation
                  End Site
                  {
                    OFFSET -2.33842 -0.294052 0.168128
                  }
                }
              }
              JOINT rPinky1
              {
                OFFSET -8.27202 -0.0477905 -0.4584
                CHANNELS 3 Zrotation Xrotation Yrotation
                JOINT rPinky2
                {
                  OFFSET -1.82734 -0.647385 -0.700984
                  CHANNELS 3 Zrotation Xrotation Yrotation
                  End Site
                  {
                    OFFSET -1.69225 -0.51767 -0.607171
                  }
                }
              }
            }
          }
        }
      }
      JOINT lCollar
      {
        OFFSET 2.68224 19.2634 -4.8768
        CHANNELS 3 Zrotation Xrotation Yrotation
        JOINT lShldr
        {
          OFFSET 8.77824 -1.95073 1.46304
          CHANNELS 3 Zrotation Xrotation Yrotation
          JOINT lForeArm
          {
            OFFSET 28.1742 -1.7115 0.48768
            CHANNELS 3 Zrotation Xrotation Yrotation
            JOINT lHand
            {
              OFFSET 22.5879 0.773209 7.07136
              CHANNELS 3 Zrotation Xrotation Yrotation
              JOINT lThumb1
              {
                OFFSET 1.2192 -0.487915 3.41376
                CHANNELS 3 Zrotation Xrotation Yrotation
                JOINT lThumb2
                {
                  OFFSET 3.37035 -0.52449 3.41376
                  CHANNELS 3 Zrotation Xrotation Yrotation
                  End Site
                  {
                    OFFSET 1.78271 -1.18214 1.43049
                  }
                }
              }
              JOINT lIndex1
              {
                OFFSET 7.75947 0.938293 5.60832
                CHANNELS 3 Zrotation Xrotation Yrotation
                JOINT lIndex2
                {
                  OFFSET 2.54057 -0.884171 1.56538
                  CHANNELS 3 Zrotation Xrotation Yrotation
                  End Site
                  {
                    OFFSET 1.62519 -0.234802 1.16502
                  }
                }
              }
              JOINT lMid1
              {
                OFFSET 8.24714 1.18213 3.41376
                CHANNELS 3 Zrotation Xrotation Yrotation
                JOINT lMid2
                {
                  OFFSET 3.10165 -0.590103 1.0647
                  CHANNELS 3 Zrotation Xrotation Yrotation
                  End Site
                  {
                    OFFSET 2.48547 -0.328903 0.83742
                  }
                }
              }
              JOINT lRing1
              {
                OFFSET 8.82822 0.546677 1.51678
                CHANNELS 3 Zrotation Xrotation Yrotation
                JOINT lRing2
                {
                  OFFSET 2.60934 -0.819778 -0.0198488
                  CHANNELS 3 Zrotation Xrotation Yrotation
                  End Site
                  {
                    OFFSET 2.33842 -0.294052 0.168128
                  }
                }
              }
              JOINT lPinky1
              {
                OFFSET 8.27202 -0.0477905 -0.4584
                CHANNELS 3 Zrotation Xrotation Yrotation
                JOINT lPinky2
                {
                  OFFSET 1.82734 -0.647385 -0.700984
                  CHANNELS 3 Zrotation Xrotation Yrotation
                  End Site
                  {
                    OFFSET 1.69225 -0.51767 -0.607171
                  }
                }
              }
            }
          }
        }
      }
    }
  }
  JOINT rButtock
  {
    OFFSET -8.77824 4.35084 1.2192
    CHANNELS 3 Zrotation Xrotation Yrotation
    JOINT rThigh
    {
      OFFSET 0 -1.70687 -2.19456
      CHANNELS 3 Zrotation Xrotation Yrotation
      JOINT rShin
      {
        OFFSET 0 -36.8199 0.73152
        CHANNELS 3 Zrotation Xrotation Yrotation
        JOINT rFoot
        {
          OFFSET 0.73152 -45.1104 -5.12064
          CHANNELS 3 Zrotation Xrotation Yrotation
          End Site
          {
            OFFSET -1.1221 -3.69964 12.103
          }
        }
      }
    }
  }
  JOINT lButtock
  {
    OFFSET 8.77824 4.35084 1.2192
    CHANNELS 3 Zrotation Xrotation Yrotation
    JOINT lThigh
    {
      OFFSET 0 -1.70687 -2.19456
      CHANNELS 3 Zrotation Xrotation Yrotation
      JOINT lShin
      {
        OFFSET 0 -36.8199 0.73152
        CHANNELS 3 Zrotation Xrotation Yrotation
        JOINT lFoot
        {
          OFFSET -0.73152 -45.1104 -5.12064
          CHANNELS 3 Zrotation Xrotation Yrotation
          End Site
          {
            OFFSET 1.1221 -3.69964 12.103
          }
        }
      }
    }
  }
}
MOTION
Frames:	8
Frame Time:	0.00833333
183.815 84.7658 37.3254 0.0 0.0 0.0 -0.385201 -0.0016881 -0.010996 -0.106235 -0.00256706 -0.0184051 -3.60127e-15 0.0 2.48481e-17 -1.08089e-14 3.18055e-15 7.14382e-17 -0.0 0.0 0.0 -0.0 0.0 0.0 -1.79043e-15 2.32951e-18 1.49089e-16 -3.58208e-14 6.21202e-18 7.95139e-16 -6.49479e-13 1.92424e-13 0.0 -7.41915e-12 -1.98536e-13 2.22639e-14 -1.75065e-11 -1.51215e-14 6.67917e-14 -3.02387e-11 -2.8625e-14 1.15295e-13 -1.75026e-11 -1.47101e-14 6.67917e-14 7.73091 5.47488 0.417314 -1.75071e-11 -1.53064e-14 6.36111e-14 2.90554 0.965183 0.102902 -1.75002e-11 -1.47101e-14 6.75868e-14 10.2786 0.731801 0.0259123 -1.75123e-11 -1.31198e-14 7.31528e-14 2.22167 -0.733487 -0.20892 -1.8872e-15 1.94126e-18 -1.49089e-16 -3.93353e-14 4.09993e-16 -7.95139e-16 -6.48336e-13 -1.89243e-13 1.90833e-14 -7.41871e-12 2.15408e-13 2.22639e-14 -1.74987e-11 5.14404e-14 7.31528e-14 -3.02133e-11 8.5875e-14 1.27222e-13 -1.75058e-11 5.20816e-14 7.95139e-14 -7.73091 5.47488 -0.417314 -1.7498e-11 5.12864e-14 6.67917e-14 -2.90554 0.965183 -0.102902 -1.75092e-11 5.15846e-14 7.15625e-14 -10.2786 0.731801 -0.0259123 -1.74964e-11 5.24792e-14 6.36111e-14 -2.22167 -0.733487 0.20892 -2.03217e-16 0.0 -3.88251e-19 0.221728 -2.58355 -0.0280826 -0.00749015 -0.872642 -0.0651451 -0.513192 3.45578 0.129359 2.03217e-16 0.0 3.88251e-19 -0.807697 -4.07086 0.0653886 0.00325519 1.82141 0.0244269 0.517629 2.2491 -0.105169
178.274 80.4994 31.3343 158.477 -86.1128 -158.349 -2.63116 0.648669 -1.05293 -0.0944665 -1.05972 -0.367996 -1.46676 -1.17285 -0.828988 2.96609 -2.23178 -0.934961 -0.0 0.0 0.0 -0.0 0.0 0.0 3.04763e-15 -3.98823e-13 -3.4059e-14 20.3007 5.46394 -1.60123 -3.94686 -1.742 6.21944 0.0275761 3.68591 0.514159 -1.01709e-09 -1.21096e-09 1.94441e-09 -1.73663e-09 -2.09297e-09 3.37285e-09 -1.01708e-09 -1.21096e-09 1.9444e-09 7.73091 5.47488 0.417314 -1.01709e-09 -1.21096e-09 1.9444e-09 2.90554 0.965183 0.102902 -1.01708e-09 -1.21096e-09 1.9444e-09 10.2786 0.731801 0.0259123 -1.01709e-09 -1.21096e-09 1.94441e-09 2.22167 -0.733487 -0.20892 3.01316e-15 -3.98822e-13 -3.42822e-14 -22.6947 10.8424 -3.59135 9.32269 -6.18479 -11.8366 -0.000144579 0.268203 -0.037692 -9.68362e-10 -6.72451e-11 1.68845e-09 -1.67582e-09 -1.17378e-10 2.92055e-09 -9.68368e-10 -6.72418e-11 1.68845e-09 -7.73091 5.47488 -0.417314 -9.68357e-10 -6.72402e-11 1.68843e-09 -2.90554 0.965183 -0.102902 -9.68372e-10 -6.72419e-11 1.68844e-09 -10.2786 0.731801 -0.0259123 -9.68361e-10 -6.72413e-11 1.68844e-09 -2.22167 -0.733487 0.20892 -2.03217e-16 0.0 -3.88251e-19 -3.20984 -15.7109 -2.2068 -0.974694 19.1605 -0.0229383 3.42611 -38.6117 4.68484 2.03217e-16 0.0 3.88251e-19 -3.48846 -8.75038 -0.580715 -0.180567 11.576 -0.267997 0.59304 -1.87425 0.128223
177.209 80.7376 31.3975 152.328 -86.3321 -152.524 -4.98375 1.30094 -2.09227 -0.114319 -2.15797 -0.724551 -3.06053 -2.40347 -1.71907 6.03269 -4.59547 -1.95037 -0.0 0.0 0.0 -0.0 0.0 0.0 6.91356e-15 -8.2634e-13 -7.27676e-14 42.1258 11.2868 -3.28298 -7.72378 -3.52385 12.8336 -0.0157465 7.57165 1.06345 -2.12205e-09 -2.56255e-09 4.11271e-09 -3.62273e-09 -4.42891e-09 7.13394e-09 -2.12204e-09 -2.56255e-09 4.1127e-09 7.73091 5.47488 0.417314 -2.12205e-09 -2.56255e-09 4.1127e-09 2.90554 0.965183 0.102902 -2.12204e-09 -2.56255e-09 4.1127e-09 10.2786 0.731801 0.0259123 -2.12205e-09 -2.56255e-09 4.11271e-09 2.22167 -0.733487 -0.20892 6.9459e-15 -8.26337e-13 -7.29074e-14 -45.1606 22.1584 -7.75665 16.4122 -11.812 -24.7448 8.64046e-05 0.548479 -0.0770835 -2.0204e-09 -1.42306e-10 3.57055e-09 -3.49655e-09 -2.48389e-10 6.17609e-09 -2.0204e-09 -1.42299e-10 3.57055e-09 -7.73091 5.47488 -0.417314 -2.02039e-09 -1.42295e-10 3.57054e-09 -2.90554 0.965183 -0.102902 -2.02041e-09 -1.42299e-10 3.57055e-09 -10.2786 0.731801 -0.0259123 -2.0204e-09 -1.42299e-10 3.57055e-09 -2.22167 -0.733487 0.20892 -2.03217e-16 0.0 -3.88251e-19 -8.06925 -29.3439 -4.94542 -2.0625 40.4267 0.0277967 49.2947 -80.0012 48.1618 2.03217e-16 0.0 3.88251e-19 -6.43691 -13.7935 -1.26626 -0.254273 21.9378 -0.598167 0.704062 -6.21936 0.376239
176.151 81.0205 31.4644 145.448 -86.4935 -146.03 -7.05212 1.94679 -3.1384 -0.109679 -3.17354 -1.06863 -4.50223 -3.51559 -2.49114 8.67858 -6.6882 -2.82198 -0.0 0.0 0.0 -0.0 0.0 0.0 1.27238e-14 -1.19647e-12 -1.02475e-13 61.85 16.3395 -4.98361 -10.7247 -4.98016 18.723 -0.118898 11.0541 1.56839 -3.01625e-09 -3.63285e-09 5.83308e-09 -5.1494e-09 -6.27885e-09 1.01183e-08 -3.01624e-09 -3.63285e-09 5.83308e-09 7.73091 5.47488 0.417314 -3.01625e-09 -3.63284e-09 5.83308e-09 2.90554 0.965183 0.102902 -3.01624e-09 -3.63285e-09 5.83308e-09 10.2786 0.731801 0.0259123 -3.01625e-09 -3.63284e-09 5.83308e-09 2.22167 -0.733487 -0.20892 1.28139e-14 -1.19647e-12 -1.02548e-13 -63.418 31.9691 -12.5014 20.6235 -15.3724 -36.8199 0.000624974 0.804607 -0.113086 -2.87009e-09 -2.01838e-10 5.06519e-09 -4.96705e-09 -3.52306e-10 8.76139e-09 -2.87009e-09 -2.0183e-10 5.06518e-09 -7.73091 5.47488 -0.417314 -2.87007e-09 -2.01823e-10 5.06517e-09 -2.90554 0.965183 -0.102902 -2.8701e-09 -2.01829e-10 5.06519e-09 -10.2786 0.731801 -0.0259123 -2.87009e-09 -2.01829e-10 5.06518e-09 -2.22167 -0.733487 0.20892 -2.03217e-16 0.0 -3.88251e-19 -13.9395 -41.6865 -8.47232 -3.04328 59.2266 0.127574 166.54 -55.4652 160.847 2.03217e-16 0.0 3.88251e-19 -9.18134 -18.101 -1.94879 -0.206832 31.0818 -0.9767 0.845679 -10.1204 0.604038
175.078 81.3101 31.5027 136.929 -86.7618 -138.035 -8.4456 2.57787 -4.20064 -0.0201452 -3.98279 -1.38039 -5.49043 -4.33442 -2.96419 10.4375 -8.11116 -3.31664 -0.0 0.0 0.0 -0.0 0.0 0.0 2.33947e-14 -1.42315e-12 -1.09679e-13 75.6771 19.5087 -6.56509 -12.5795 -5.8633 22.737 -0.229982 13.5318 1.93831 -3.38355e-09 -3.99991e-09 6.43365e-09 -5.7775e-09 -6.9138e-09 1.11609e-08 -3.38354e-09 -3.99992e-09 6.43365e-09 7.73091 5.47488 0.417314 -3.38355e-09 -3.99991e-09 6.43365e-09 2.90554 0.965183 0.102902 -3.38354e-09 -3.99991e-09 6.43365e-09 10.2786 0.731801 0.0259123 -3.38354e-09 -3.99991e-09 6.43365e-09 2.22167 -0.733487 -0.20892 2.352e-14 -1.42315e-12 -1.09729e-13 -74.4562 38.4778 -17.1552 22.6482 -16.7624 -45.5791 0.00122751 1.00037 -0.140607 -3.21392e-09 -2.2255e-10 5.59115e-09 -5.56199e-09 -3.88489e-10 9.67108e-09 -3.21392e-09 -2.22541e-10 5.59114e-09 -7.73091 5.47488 -0.417314 -3.2139e-09 -2.22534e-10 5.59113e-09 -2.90554 0.965183 -0.102902 -3.21393e-09 -2.2254e-10 5.59114e-09 -10.2786 0.731801 -0.0259123 -3.21392e-09 -2.2254e-10 5.59114e-09 -2.22167 -0.733487 0.20892 -2.03217e-16 0.0 -3.88251e-19 -19.7949 -51.0087 -12.5837 -3.73392 71.8608 0.361671 176.01 -28.5743 165.401 2.03217e-16 0.0 3.88251e-19 -11.1794 -20.576 -2.55497 -0.0912741 37.1836 -1.36987 0.992647 -12.9119 0.771621
174.025 81.6263 31.5433 128.039 -86.9776 -129.615 -8.92847 3.21847 -5.31123 0.19367 -4.51589 -1.65349 -5.80692 -4.7593 -3.00681 11.0318 -8.59323 -3.25431 -0.0 0.0 0.0 -0.0 0.0 0.0 4.4988e-14 -1.45409e-12 -8.13868e-14 80.9038 20.003 -7.828 -13.1404 -6.09352 24.0482 -0.28769 14.633 2.10592 -2.90678e-09 -3.19025e-09 5.20541e-09 -4.96642e-09 -5.51557e-09 9.03235e-09 -2.90677e-09 -3.19026e-09 5.20541e-09 7.73091 5.47488 0.417314 -2.90678e-09 -3.19025e-09 5.20541e-09 2.90554 0.965183 0.102902 -2.90677e-09 -3.19025e-09 5.2054e-09 10.2786 0.731801 0.0259123 -2.90678e-09 -3.19025e-09 5.20541e-09 2.22167 -0.733487 -0.20892 4.51195e-14 -1.45408e-12 -8.14842e-14 -77.4254 40.7601 -20.3403 23.3607 -17.1291 -49.2952 0.00163428 1.12201 -0.157709 -2.73814e-09 -1.61477e-10 4.54481e-09 -4.73833e-09 -2.82275e-10 7.861e-09 -2.73815e-09 -1.61471e-10 4.5448e-09 -7.73091 5.47488 -0.417314 -2.73813e-09 -1.61465e-10 4.54479e-09 -2.90554 0.965183 -0.102902 -2.73815e-09 -1.6147e-10 4.54481e-09 -10.2786 0.731801 -0.0259123 -2.73814e-09 -1.6147e-10 4.5448e-09 -2.22167 -0.733487 0.20892 -2.03217e-16 0.0 -3.88251e-19 -23.7892 -56.3198 -16.1075 -3.85833 75.7602 0.672384 178.837 -18.2426 166.176 2.03217e-16 0.0 3.88251e-19 -12.0338 -20.4619 -2.99731 -0.035023 39.029 -1.69294 1.11826 -14.1625 0.844877
172.989 81.952 31.5581 118.282 -87.2017 -120.336 -8.75103 3.8627 -6.4561 0.498671 -4.85118 -1.89842 -5.63589 -4.90257 -2.74154 10.8041 -8.40404 -2.79262 -0.0 0.0 0.0 -0.0 0.0 0.0 7.4187e-14 -1.34496e-12 -2.79292e-14 79.8524 18.6061 -8.81408 -12.8412 -5.89854 23.4227 -0.290509 14.7503 2.1233 -1.83217e-09 -1.54923e-09 2.68331e-09 -3.13599e-09 -2.6809e-09 4.66034e-09 -1.83216e-09 -1.54924e-09 2.6833e-09 7.73091 5.47488 0.417314 -1.83217e-09 -1.54923e-09 2.6833e-09 2.90554 0.965183 0.102902 -1.83216e-09 -1.54923e-09 2.6833e-09 10.2786 0.731801 0.0259123 -1.83217e-09 -1.54923e-09 2.68331e-09 2.22167 -0.733487 -0.20892 7.43038e-14 -1.34496e-12 -2.81249e-14 -75.3741 40.2077 -21.9238 23.4419 -17.3555 -49.3906 0.00182287 1.19021 -0.167298 -1.68224e-09 -4.32923e-11 2.3857e-09 -2.91058e-09 -7.66144e-11 4.12602e-09 -1.68225e-09 -4.32918e-11 2.38569e-09 -7.73091 5.47488 -0.417314 -1.68224e-09 -4.32881e-11 2.38569e-09 -2.90554 0.965183 -0.102902 -1.68225e-09 -4.32921e-11 2.3857e-09 -10.2786 0.731801 -0.0259123 -1.68224e-09 -4.3291e-11 2.38569e-09 -2.22167 -0.733487 0.20892 -2.03217e-16 0.0 -3.88251e-19 -25.549 -58.8735 -18.4154 -3.31345 73.4258 0.778413 178.574 -19.779 167.02 2.03217e-16 0.0 3.88251e-19 -12.0237 -18.5024 -3.30752 -0.0862073 37.8353 -1.9199 1.2199 -14.3122 0.84814
171.981 82.275 31.5468 108.949 -87.393 -111.447 -8.25696 4.45753 -7.57463 0.847455 -5.08729 -2.1204 -5.27604 -4.90958 -2.36747 10.2309 -7.95826 -2.2004 -0.0 0.0 0.0 -0.0 0.0 0.0 9.98404e-14 -1.17166e-12 2.92058e-14 76.2434 16.5721 -9.71484 -12.2169 -5.54831 22.088 -0.268305 14.4298 2.07343 -6.88683e-10 1.16825e-10 6.1389e-11 -1.18767e-09 1.96857e-10 1.14955e-10 -6.88676e-10 1.16817e-10 6.13882e-11 7.73091 5.47488 0.417314 -6.88682e-10 1.16821e-10 6.13875e-11 2.90554 0.965183 0.102902 -6.88677e-10 1.16822e-10 6.13871e-11 10.2786 0.731801 0.0259123 -6.88685e-10 1.16827e-10 6.13937e-11 2.22167 -0.733487 -0.20892 9.993e-14 -1.17165e-12 2.89104e-14 -71.4796 38.5928 -22.7304 23.2974 -17.5712 -48.0284 0.00186004 1.2204 -0.171543 -5.72528e-10 5.38392e-11 1.27306e-10 -9.89687e-10 9.27153e-11 2.19376e-10 -5.72532e-10 5.38344e-11 1.27299e-10 -7.73091 5.47488 -0.417314 -5.72526e-10 5.38355e-11 1.27301e-10 -2.90554 0.965183 -0.102902 -5.72531e-10 5.38333e-11 1.27304e-10 -10.2786 0.731801 -0.0259123 -5.72521e-10 5.38354e-11 1.27299e-10 -2.22167 -0.733487 0.20892 -2.03217e-16 0.0 -3.88251e-19 -26.1086 -60.3351 -19.9566 -2.51814 68.7621 0.769356 177.314 -26.1116 167.898 2.03217e-16 0.0 3.88251e-19 -11.607 -15.8521 -3.57734 -0.196388 35.4256 -2.08428 1.30478 -14.0019 0.826379
